<svg width="1168" height="1168" viewBox="0 0 1168 1168" fill="none" xmlns="http://www.w3.org/2000/svg">
<path d="M584 0C906.534 1.41741e-06 1168 261.466 1168 584C1168 678.893 1145.37 768.499 1105.2 847.716V1063.34H917.685C823.096 1129.31 708.067 1168 584 1168C261.466 1168 1.41815e-06 906.534 0 584C0 261.466 261.466 0 584 0ZM586.093 255.369C405.751 255.369 259.556 401.566 259.556 581.907C259.556 762.249 405.751 908.444 586.093 908.444C766.434 908.444 912.631 762.249 912.631 581.907C912.631 401.565 766.435 255.369 586.093 255.369Z" fill="#5B5B5B"/>
<path d="M129.778 180.014C198.639 180.014 254.962 233.647 259.278 301.419H259.556V581.907C259.556 717.659 342.395 834.063 460.281 883.326C499.002 899.507 541.504 908.445 586.093 908.445C601.894 908.445 617.432 907.315 632.634 905.145C643.171 902.383 737.958 900.91 749.362 900.91C821.036 900.91 879.14 959.013 879.14 1030.69C879.139 1090.78 838.287 1141.33 782.841 1156.09L782.853 1156.66C745.633 1164.1 623.409 1168 584 1168C457.33 1168 340.08 1127.67 244.388 1059.15C179.077 1012.39 123.807 952.494 82.4398 883.326C30.0884 795.793 0 693.41 0 584L0 301.419H0.278002C4.59385 233.647 60.9165 180.014 129.778 180.014Z" fill="#FFB210"/>
</svg>